<?xml version="1.0" encoding="UTF-8" standalone="no"?>
<svg
   xmlns:dc="http://purl.org/dc/elements/1.1/"
   xmlns:cc="http://creativecommons.org/ns#"
   xmlns:rdf="http://www.w3.org/1999/02/22-rdf-syntax-ns#"
   xmlns:svg="http://www.w3.org/2000/svg"
   xmlns="http://www.w3.org/2000/svg"
   xmlns:sodipodi="http://sodipodi.sourceforge.net/DTD/sodipodi-0.dtd"
   xmlns:inkscape="http://www.inkscape.org/namespaces/inkscape"
   width="32"
   height="32"
   viewBox="0 0 24 24"
   fill="none"
   version="1.1"
   id="svg12"
   sodipodi:docname="tomato.svg"
   inkscape:version="1.0.2 (e86c8708, 2021-01-15)">
  <metadata
     id="metadata18">
    <rdf:RDF>
      <cc:Work
         rdf:about="">
        <dc:format>image/svg+xml</dc:format>
        <dc:type
           rdf:resource="http://purl.org/dc/dcmitype/StillImage" />
      </cc:Work>
    </rdf:RDF>
  </metadata>
  <defs
     id="defs16" />
  <sodipodi:namedview
     pagecolor="#ffffff"
     bordercolor="#666666"
     borderopacity="1"
     objecttolerance="10"
     gridtolerance="10"
     guidetolerance="10"
     inkscape:pageopacity="0"
     inkscape:pageshadow="2"
     inkscape:window-width="1280"
     inkscape:window-height="800"
     id="namedview14"
     showgrid="false"
     inkscape:zoom="8.1136743"
     inkscape:cx="-2.5948154"
     inkscape:cy="22.986646"
     inkscape:window-x="0"
     inkscape:window-y="0"
     inkscape:window-maximized="0"
     inkscape:current-layer="svg12" />
  <path
     d="M 14.742281,2.4320283 C 14.568818,2.2769602 14.32761,2.2031133 14.086401,2.2548089 l -0.226133,0.044303 c -0.369351,-0.036919 -0.746333,-0.05908 -1.130759,-0.05908 -1.168448,0 -2.299207,0.1919961 -3.3469571,0.5390603 L 8.8774265,1.2726954 C 8.7869733,0.99947802 8.5382275,0.80010741 8.244254,0.77056317 7.9502815,0.73364433 7.6637516,0.87394497 7.5129966,1.1250111 L 6.1485854,3.4067487 C 5.2213836,2.7126295 4.0830959,2.2400322 2.9297421,2.2400322 c -0.4146055,0 -0.7538333,0.3322966 -0.7538333,0.738431 0,0.4061343 0.3392278,0.7384311 0.7538333,0.7384311 0.8744375,0 1.7488845,0.4135175 2.4424062,0.9673363 L 1.0074796,7.5345175 C 0.72856326,7.71182 0.60794964,8.0514733 0.70594056,8.3615907 0.79640328,8.671709 1.090395,8.8858376 1.4220851,8.8858376 h 1.462421 C 2.4322118,10.030412 2.1759088,11.27836 2.1759088,12.577993 c 0,0.184594 0.015075,0.361805 0.030152,0.546491 -0.045227,0.155058 -0.030152,0.317501 0.022622,0.457792 0.5125965,5.235453 5.0204919,9.333715 10.5008262,9.333715 5.827071,0 10.553628,-4.629893 10.553628,-10.337998 0,-5.0360918 -3.671175,-9.2229306 -8.540856,-10.1459647 z M 12.729509,21.439147 c -4.6435477,0 -8.4805729,-3.448492 -8.9856315,-7.864255 l 0.716135,-0.679397 c 0.075387,1.971648 0.8744375,3.928435 2.412274,5.427523 1.6131768,1.580215 3.7390155,2.377661 5.8647605,2.377661 2.125839,0 4.244045,-0.790062 5.864759,-2.377661 0.294068,-0.28806 0.294068,-0.753236 0,-1.041203 -0.293972,-0.287966 -0.768852,-0.287966 -1.062825,0 -2.645945,2.591883 -6.950292,2.591883 -9.5962371,0 -1.6358465,-1.602368 -2.2615283,-3.832446 -1.8695361,-5.91485 l 0.3316428,-0.317502 2.7213228,3.455875 c 0.1357738,0.184594 0.3619069,0.287967 0.5880399,0.287967 0.082917,0 0.1658306,-0.01477 0.2412086,-0.03692 C 10.26447,14.653009 10.46799,14.37243 10.46799,14.054836 V 8.7972327 L 15.835257,8.1400783 C 16.174552,8.09578 16.445911,7.8373437 16.491138,7.5049825 16.536361,7.1727139 16.34792,6.8552118 16.031239,6.7223044 l -3.181126,-1.2774911 1.552874,-1.572851 c 4.191282,0.7753496 7.372502,4.3788722 7.372502,8.7060307 0,4.888416 -4.055601,8.861154 -9.04598,8.861154 z M 6.359624,5.8066357 c 0.015075,-0.00737 0.015075,-0.01477 0.022613,-0.022149 0.203614,0.31752 0.3166805,0.6277026 0.3166805,0.8861337 0,0.406107 0.3392004,0.7383756 0.7537775,0.7383756 0.4146711,0 0.7538712,-0.3322686 0.7538712,-0.7383756 0,-0.7015306 -0.3619079,-1.4916387 -0.9498539,-2.2079189 l 0.701107,-1.1740999 0.3241239,0.9747293 c 0.1206046,0.3544387 0.4899551,0.5685863 0.8668432,0.4947394 l 2.8420216,-0.575969 -1.010155,1.0264153 c -0.173369,0.1772194 -0.248747,0.4282857 -0.195982,0.6645845 0.05276,0.2362988 0.218595,0.4357158 0.452265,0.5317044 L 12.789811,7.0250411 9.6162225,7.4163796 C 9.246872,7.4606779 8.9603421,7.7782758 8.9603421,8.1474641 V 11.883922 L 7.0758057,9.4840137 C 6.9476642,9.3141875 6.7441444,9.2108151 6.533087,9.1960476 c -0.015075,0 -0.037783,0 -0.052858,0 -0.1959538,0 -0.3844073,0.073837 -0.5276343,0.2067449 L 4.4298615,10.850102 5.1610719,8.3394394 C 5.2289213,8.1253108 5.1836853,7.8890299 5.0404583,7.7044363 4.8972313,7.51975 4.6710888,7.4089938 4.4373992,7.4089938 H 3.9097179 Z"
     fill="#359740"
     id="path10"
     style="stroke-width:0.932546" />
</svg>
